#!OML:ASF F:\VICON\USERDATA\INSTALL\rory3\rory3.ASF
:FULLY-SPECIFIED
:DEGREES
1162
root -2.52367 16.4022 -3.30214 -157.363 -38.9136 185.033
lowerback -13.2376 6.27839 -3.00296
upperback -11.0545 7.47936 -1.7014
thorax -4.50499 3.40489 0.571773
lowerneck -10.8178 13.5246 10.7825
upperneck 22.1938 18.9202 -10.6241
head 11.0316 8.32038 -2.87465
rclavicle -5.94987e-014 -6.75868e-015
rhumerus -220.525 -173.512 101.014
rradius 12.4254
rwrist 13.9767
rhand -4.44263 14.9103
rfingers 7.12502
rthumb 21.3289 -13.9359
lclavicle -5.94987e-014 -6.75868e-015
lhumerus -34.3348 17.1966 63.9411
lradius 16.3603
lwrist -20.1555
lhand -5.8338 17.0052
lfingers 7.12502
lthumb 19.9921 45.9968
rfemur -28.8004 -5.77756 34.5323
rtibia 46.179
rfoot -32.5465 -33.3706
rtoes -1.2375
lfemur -52.7761 10.3235 -30.096
ltibia 46.7519
lfoot -43.4712 30.4206
ltoes 15.1051
1163
root -2.55976 16.3979 -3.32639 -157.686 -39.4221 185.152
lowerback -13.1142 6.10832 -2.99546
upperback -10.8937 7.28847 -1.48086
thorax -4.4168 3.32906 0.7778
lowerneck -10.9019 13.6186 10.9265
upperneck 22.1035 19.0755 -10.8454
head 11.0755 8.37944 -2.93754
rclavicle 5.76476e-015 -7.15625e-015
rhumerus -220.247 -175.921 99.7412
rradius 12.9673
rwrist 11.2239
rhand -5.01427 14.8991
rfingers 7.12502
rthumb 20.7797 -14.0083
lclavicle 5.76476e-015 -7.15625e-015
lhumerus -34.5121 12.9597 66.3965
lradius 17.8107
lwrist -15.7448
lhand -5.14437 16.9188
lfingers 7.12502
lthumb 20.6547 45.8398
rfemur -29.3007 -6.53971 34.4794
rtibia 47.6918
rfoot -30.0291 -33.3632
rtoes -3.50963
lfemur -52.3603 9.69917 -29.6251
ltibia 46.968
lfoot -44.4207 29.7312
ltoes 16.6912
1164
root -2.59156 16.3941 -3.34673 -158.332 -40.1573 185.854
lowerback -12.8987 6.15832 -2.41608
upperback -10.8741 7.3218 -1.35183
thorax -4.4465 3.32435 0.582244
lowerneck -10.8691 13.537 11.0788
upperneck 22.0239 18.9457 -10.9112
head 11.0477 8.33411 -3.00741
rclavicle -4.16951e-014 -7.15625e-015
rhumerus -220.044 -173.923 101.337
rradius 13.4841
rwrist 10.6397
rhand -2.56017 14.5176
rfingers 7.12502
rthumb 23.136 -14.1131
lclavicle -4.16951e-014 -7.15625e-015
lhumerus -34.8021 6.76894 69.8556
lradius 19.9139
lwrist -9.26309
lhand -5.4902 18.6093
lfingers 7.12502
lthumb 20.3224 47.5661
rfemur -29.9885 -7.11684 34.9537
rtibia 49.3208
rfoot -27.1463 -33.7035
rtoes -7.7381
lfemur -52.1421 9.165 -28.7133
ltibia 47.2295
lfoot -45.0352 29.2143
ltoes 17.8911
1165
root -2.6294 16.3912 -3.3581 -158.842 -40.7557 186.309
lowerback -12.5886 6.24975 -1.89367
upperback -10.8705 7.4138 -1.33013
thorax -4.53969 3.34824 0.300209
lowerneck -10.7482 13.3813 11.1143
upperneck 21.869 18.7082 -10.8889
head 10.938 8.24776 -3.05579
rclavicle -8.18123e-014 -1.98785e-014
rhumerus -220.072 -173.795 101.481
rradius 13.9659
rwrist 10.0806
rhand -2.54618 14.4031
rfingers 7.12502
rthumb 23.1494 -14.226
lclavicle -8.18123e-014 -1.98785e-014
lhumerus -35.1621 3.19943 71.9235
lradius 21.2269
lwrist -5.8876
lhand -5.66907 19.5772
lfingers 7.12502
lthumb 20.1504 48.5522
rfemur -30.7529 -7.84244 35.1198
rtibia 51.0612
rfoot -24.0749 -33.5537
rtoes -10.2331
lfemur -51.9617 8.95001 -28.2876
ltibia 47.489
lfoot -44.775 29.5052
ltoes 16.8359
1166
root -2.66826 16.3806 -3.37271 -158.921 -41.0175 185.934
lowerback -12.2839 6.17239 -2.13781
upperback -10.7576 7.35678 -1.32158
thorax -4.61347 3.34719 0.411084
lowerneck -10.5617 13.3412 11.0862
upperneck 21.6325 18.6791 -11.0103
head 10.8221 8.2384 -3.11184
rclavicle 3.56197e-014 -2.66371e-014
rhumerus -219.874 -174.899 101.01
rradius 14.3491
rwrist 8.6379
rhand -2.96816 14.4638
rfingers 7.12502
rthumb 22.7445 -14.2156
lclavicle 3.56197e-014 -2.66371e-014
lhumerus -35.6416 1.50274 73.1682
lradius 22.2165
lwrist -4.27904
lhand -5.68827 20.4046
lfingers 7.12502
lthumb 20.132 49.3815
rfemur -31.3 -8.61365 34.5174
rtibia 52.9148
rfoot -22.8756 -31.9095
rtoes -5.24855
lfemur -51.5145 8.91777 -28.6221
ltibia 47.6792
lfoot -44.9153 28.8715
ltoes 17.6486
1167
root -2.6977 16.3712 -3.3956 -159.051 -41.2468 185.583
lowerback -11.9775 6.21554 -2.66248
upperback -10.5511 7.5015 -1.12953
thorax -4.65993 3.47768 0.880072
lowerneck -10.8581 13.1507 10.4019
upperneck 21.7086 18.5008 -10.9
head 10.7986 8.09924 -2.99066
rclavicle 8.53345e-014 2.18663e-014
rhumerus -219.62 -175.181 101.582
rradius 14.7757
rwrist 7.79296
rhand -3.00205 14.6698
rfingers 7.12502
rthumb 22.712 -14.0136
lclavicle 8.53345e-014 2.18663e-014
lhumerus -35.785 0.392966 74.6372
lradius 22.7926
lwrist -3.33256
lhand -5.83872 20.7559
lfingers 7.12502
lthumb 19.9874 49.748
rfemur -31.8129 -9.13108 33.9459
rtibia 54.7827
rfoot -21.8408 -30.4064
rtoes -1.16892
lfemur -51.0058 8.98367 -28.8941
ltibia 47.8004
lfoot -44.8084 28.5005
ltoes 17.6429
1168
root -2.7322 16.3667 -3.40479 -159.153 -41.8199 185.884
lowerback -11.9291 6.18847 -2.26375
upperback -10.6163 7.42882 -1.19187
thorax -4.68789 3.41388 0.588699
lowerneck -10.9587 13.0995 10.8602
upperneck 21.781 18.3587 -10.9532
head 10.8816 8.0623 -3.09209
rclavicle 5.03174e-016 1.23246e-014
rhumerus -219.533 -175.329 101.381
rradius 15.2889
rwrist 6.93675
rhand -3.14238 14.7179
rfingers 7.12502
rthumb 22.5773 -13.9819
lclavicle 5.03174e-016 1.23246e-014
lhumerus -36.086 -1.07298 75.4179
lradius 23.5152
lwrist -1.91748
lhand -5.85015 21.0202
lfingers 7.12502
lthumb 19.9764 50.0134
rfemur -33.1665 -9.46106 33.9277
rtibia 56.6047
rfoot -19.0071 -29.9263
rtoes -2.02974
lfemur -51.1306 8.92935 -28.7539
ltibia 47.8684
lfoot -44.1781 28.7118
ltoes 16.5657
